<svg width="166" height="164" viewBox="0 0 166 164" fill="none" xmlns="http://www.w3.org/2000/svg">
<path d="M83 81.5V0C67.0947 46.9599 50.1669 65.9452 0 81.5H83Z" fill="url(#paint0_linear_13_2)"/>
<path d="M83 81.5V0C98.9053 46.9599 115.833 65.9452 166 81.5H83Z" fill="url(#paint1_linear_13_2)"/>
<path d="M83 82V163.5C67.0947 116.54 50.1669 97.5548 0 82H83Z" fill="url(#paint2_linear_13_2)"/>
<path d="M83 82V163.5C98.9053 116.54 115.833 97.5548 166 82H83Z" fill="url(#paint3_linear_13_2)"/>
<g filter="url(#filter0_d_13_2)">
<path d="M83.3827 82.2802L54.0513 52.9488C65.2276 75.5737 65.9682 88.4986 53.5114 112.151L83.3827 82.2802Z" fill="url(#paint4_linear_13_2)"/>
<path d="M83.2027 82.4602L53.8713 53.1288C76.4961 64.3051 89.4211 65.0457 113.074 52.5889L83.2027 82.4602Z" fill="url(#paint5_linear_13_2)"/>
<path d="M83.0228 82.2803L112.354 111.612C89.7293 100.435 76.8044 99.6948 53.1515 112.152L83.0228 82.2803Z" fill="url(#paint6_linear_13_2)"/>
<path d="M82.8428 82.4602L112.174 111.792C100.998 89.1668 100.257 76.2418 112.714 52.5889L82.8428 82.4602Z" fill="url(#paint7_linear_13_2)"/>
</g>
<g filter="url(#filter1_d_13_2)">
<path d="M83.5486 81.433L84.488 39.9627C75.8535 63.6743 67.0212 73.1397 41.315 80.4762L83.5486 81.433Z" fill="url(#paint8_linear_13_2)"/>
<path d="M83.2941 81.4272L84.2335 39.957C91.7855 64.0352 100.18 73.8908 125.528 82.384L83.2941 81.4272Z" fill="url(#paint9_linear_13_2)"/>
<path d="M83.2998 81.1728L82.3604 122.643C74.8084 98.5647 66.4138 88.7092 41.0663 80.216L83.2998 81.1728Z" fill="url(#paint10_linear_13_2)"/>
<path d="M83.0454 81.167L82.106 122.637C90.7405 98.9257 99.5728 89.4603 125.279 82.1237L83.0454 81.167Z" fill="url(#paint11_linear_13_2)"/>
</g>
<defs>
<filter id="filter0_d_13_2" x="49.1515" y="52.5889" width="67.9225" height="67.5626" filterUnits="userSpaceOnUse" color-interpolation-filters="sRGB">
<feFlood flood-opacity="0" result="BackgroundImageFix"/>
<feColorMatrix in="SourceAlpha" type="matrix" values="0 0 0 0 0 0 0 0 0 0 0 0 0 0 0 0 0 0 127 0" result="hardAlpha"/>
<feOffset dy="4"/>
<feGaussianBlur stdDeviation="2"/>
<feComposite in2="hardAlpha" operator="out"/>
<feColorMatrix type="matrix" values="0 0 0 0 0.189636 0 0 0 0 0.299357 0 0 0 0 0.833333 0 0 0 1 0"/>
<feBlend mode="normal" in2="BackgroundImageFix" result="effect1_dropShadow_13_2"/>
<feBlend mode="normal" in="SourceGraphic" in2="effect1_dropShadow_13_2" result="shape"/>
</filter>
<filter id="filter1_d_13_2" x="37.0663" y="39.957" width="92.4613" height="90.686" filterUnits="userSpaceOnUse" color-interpolation-filters="sRGB">
<feFlood flood-opacity="0" result="BackgroundImageFix"/>
<feColorMatrix in="SourceAlpha" type="matrix" values="0 0 0 0 0 0 0 0 0 0 0 0 0 0 0 0 0 0 127 0" result="hardAlpha"/>
<feOffset dy="4"/>
<feGaussianBlur stdDeviation="2"/>
<feComposite in2="hardAlpha" operator="out"/>
<feColorMatrix type="matrix" values="0 0 0 0 0.189636 0 0 0 0 0.299357 0 0 0 0 0.833333 0 0 0 1 0"/>
<feBlend mode="normal" in2="BackgroundImageFix" result="effect1_dropShadow_13_2"/>
<feBlend mode="normal" in="SourceGraphic" in2="effect1_dropShadow_13_2" result="shape"/>
</filter>
<linearGradient id="paint0_linear_13_2" x1="82.5" y1="13.5" x2="7" y2="79.5" gradientUnits="userSpaceOnUse">
<stop stop-color="#354AD7"/>
<stop offset="1" stop-color="#BFCEF0"/>
</linearGradient>
<linearGradient id="paint1_linear_13_2" x1="83.5" y1="13.5" x2="159" y2="79.5" gradientUnits="userSpaceOnUse">
<stop stop-color="#354AD7"/>
<stop offset="1" stop-color="#BFCEF0"/>
</linearGradient>
<linearGradient id="paint2_linear_13_2" x1="82.5" y1="150" x2="7" y2="84" gradientUnits="userSpaceOnUse">
<stop stop-color="#354AD7"/>
<stop offset="1" stop-color="#BFCEF0"/>
</linearGradient>
<linearGradient id="paint3_linear_13_2" x1="83.5" y1="150" x2="159" y2="84" gradientUnits="userSpaceOnUse">
<stop stop-color="#354AD7"/>
<stop offset="1" stop-color="#BFCEF0"/>
</linearGradient>
<linearGradient id="paint4_linear_13_2" x1="39.1156" y1="67.8844" x2="68.4471" y2="97.2159" gradientUnits="userSpaceOnUse">
<stop stop-color="#A598EF"/>
<stop offset="1" stop-color="#3141DB"/>
</linearGradient>
<linearGradient id="paint5_linear_13_2" x1="68.8069" y1="38.1931" x2="98.1383" y2="67.5246" gradientUnits="userSpaceOnUse">
<stop stop-color="#A598EF"/>
<stop offset="1" stop-color="#3141DB"/>
</linearGradient>
<linearGradient id="paint6_linear_13_2" x1="85.8719" y1="85.4749" x2="97.4185" y2="126.547" gradientUnits="userSpaceOnUse">
<stop stop-color="#2D41D8"/>
<stop offset="1" stop-color="#9A90ED"/>
</linearGradient>
<linearGradient id="paint7_linear_13_2" x1="86.0375" y1="85.3093" x2="127.11" y2="96.856" gradientUnits="userSpaceOnUse">
<stop stop-color="#2D41D8"/>
<stop offset="1" stop-color="#9A90ED"/>
</linearGradient>
<linearGradient id="paint8_linear_13_2" x1="63.3712" y1="39.4844" x2="62.4318" y2="80.9546" gradientUnits="userSpaceOnUse">
<stop stop-color="#A598EF"/>
<stop offset="1" stop-color="#3141DB"/>
</linearGradient>
<linearGradient id="paint9_linear_13_2" x1="105.35" y1="40.4353" x2="104.411" y2="81.9056" gradientUnits="userSpaceOnUse">
<stop stop-color="#A598EF"/>
<stop offset="1" stop-color="#3141DB"/>
</linearGradient>
<linearGradient id="paint10_linear_13_2" x1="82.9588" y1="85.4397" x2="61.2436" y2="122.165" gradientUnits="userSpaceOnUse">
<stop stop-color="#2D41D8"/>
<stop offset="1" stop-color="#9A90ED"/>
</linearGradient>
<linearGradient id="paint11_linear_13_2" x1="83.1929" y1="85.445" x2="103.223" y2="123.116" gradientUnits="userSpaceOnUse">
<stop stop-color="#2D41D8"/>
<stop offset="1" stop-color="#9A90ED"/>
</linearGradient>
</defs>
</svg>
